<svg id="Layer_1" enable-background="new 0 0 512 512" height="512" viewBox="0 0 512 512" width="512" xmlns="http://www.w3.org/2000/svg"><g><ellipse cx="256" cy="267.012" fill="#5bb5e7" rx="244.989" ry="244.989" transform="matrix(.707 -.707 .707 .707 -113.825 259.225)"/><path d="m364.229 0h-216.458c-28.576 0-51.824 23.248-51.824 51.824v400.666c42.932 37.08 98.872 59.51 160.053 59.51s117.121-22.43 160.054-59.51v-400.666c0-28.576-23.249-51.824-51.825-51.824z" fill="#474979"/><path d="m169.447 51.824c0-28.576 23.248-51.824 51.824-51.824h-73.5c-28.576 0-51.824 23.248-51.824 51.824v400.666c21.55 18.612 46.378 33.53 73.5 43.776z" fill="#383c6b"/><path d="m126.439 474.956c37.587 23.468 81.985 37.044 129.561 37.044s91.974-13.576 129.56-37.044v-214.839h-259.121z" fill="#fff"/><path d="m165.428 260.117h-38.989v214.839c12.307 7.684 25.349 14.3 38.989 19.733z" fill="#cce6ed"/><path d="m126.439 167.347h259.122v96.158h-259.122z" fill="#5bb5e7"/><path d="m126.439 167.347h38.989v96.158h-38.989z" fill="#4796cd"/><path d="m126.439 263.505h77.904v37.121h-77.904z" fill="#a6d6eb"/><path d="m126.439 263.505h38.989v37.121h-38.989z" fill="#81c5e9"/><path d="m126.439 300.625h77.904v37.121h-77.904z" fill="#81c5e9"/><path d="m126.439 300.625h38.989v37.121h-38.989z" fill="#5bb5e7"/><path d="m126.439 337.746h77.904v37.121h-77.904z" fill="#a6d6eb"/><path d="m126.439 337.746h38.989v37.121h-38.989z" fill="#81c5e9"/><path d="m204.365 374.905-77.903.08.038 37.121 69.433-.071c4.679-.005 8.467-3.801 8.463-8.48z" fill="#81c5e9"/><path d="m165.428 374.945-38.967.04.038 37.121 38.929-.04z" fill="#5bb5e7"/><path d="m354.77 321.286-18.923-19.2c-3.154-3.2-7.461-5-11.954-4.995l-29.038.03-28.698.029c-4.71.005-9.221 1.901-12.52 5.262l-18.276 18.62c-2.237 2.279-2.155 5.953.181 8.13l23.308 21.721.061 59.511c.001.946.769 1.712 1.715 1.711l68.697-.071c.946-.001 1.712-.769 1.711-1.715l-.061-59.511 23.649-22.13c2.118-1.982 2.186-5.324.148-7.392z" fill="#ffcd38"/><path d="m255.948 512v-36.926h-129.32c37.532 23.387 81.843 36.916 129.32 36.926z" fill="#81c5e9"/><path d="m256 512c47.497 0 91.826-13.531 129.372-36.927h-129.424v36.927z" fill="#5bb5e7"/><path d="m295.026 323.495c9.474 0 17.154-7.68 17.154-17.154v-9.249h-17.266-17.043v9.249c.001 9.474 7.681 17.154 17.155 17.154z" fill="#ffac00"/><path d="m295.026 297.091v9.249c0 6.346-3.455 11.873-8.577 14.84 2.525 1.462 5.449 2.313 8.577 2.313 9.474 0 17.154-7.68 17.154-17.154v-9.249h-17.154z" fill="#ff8500"/><path d="m312.18 445.987h-34.308c-4.678 0-8.47-3.792-8.47-8.47s3.792-8.47 8.47-8.47h34.308c4.678 0 8.47 3.792 8.47 8.47s-3.792 8.47-8.47 8.47z" fill="#cce6ed"/><path d="m295.37 437.517c0-4.678 3.792-8.47 8.47-8.47h-25.968c-4.678 0-8.47 3.792-8.47 8.47 0 4.679 3.792 8.47 8.47 8.47h25.968c-4.678 0-8.47-3.792-8.47-8.47z" fill="#a6d6eb"/><path d="m295.143 38.963h-46.304c-4.678 0-8.47-3.792-8.47-8.47s3.792-8.47 8.47-8.47h46.304c4.678 0 8.47 3.792 8.47 8.47s-3.792 8.47-8.47 8.47z" fill="#64679c"/><path d="m216.65 38.959c-4.686 0-8.47-3.822-8.47-8.47 0-3.938 2.723-7.45 6.821-8.3 5.175-1.027 10.119 2.909 10.119 8.3 0 4.687-3.793 8.47-8.47 8.47z" fill="#64679c"/><path d="m316.934 138.079v57.307c0 16.841 13.652 30.493 30.493 30.493s30.493-13.652 30.493-30.493v-57.307z" fill="#cc2137"/><path d="m255.948 138.079v57.307c0 16.841 13.652 30.493 30.493 30.493s30.493-13.652 30.493-30.493v-57.307z" fill="#ffac00"/><path d="m194.962 138.079v57.307c0 16.841 13.652 30.493 30.493 30.493s30.493-13.652 30.493-30.493v-57.307z" fill="#cc2137"/><path d="m133.976 138.079v57.307c0 16.841 13.652 30.493 30.493 30.493s30.493-13.652 30.493-30.493v-57.307z" fill="#ffac00"/><path d="m255.948 138.079v-46.216h-42.225l-18.761 46.216z" fill="#ffac00"/><path d="m213.723 91.863-18.761 46.216h-60.986l37.584-46.216z" fill="#cc2137"/><path d="m255.948 138.079v-46.216h42.224l18.762 46.216z" fill="#cc2137"/><path d="m298.172 91.863 18.762 46.216h60.986l-37.584-46.216z" fill="#ffac00"/><path d="m378.126 137.936-.268 57.306c-.079 16.84 13.51 30.557 30.35 30.635 16.841.079 30.556-13.51 30.635-30.35l.167-35.66c.041-8.784-2.198-16.011-5.069-21.67z" fill="#ffac00"/><path d="m424.591 125.689-39.082-33.826h-45.174l37.585 46.216h55.816c-2.984-5.815-6.624-9.953-9.145-12.39z" fill="#cc2137"/><path d="m133.875 137.936.268 57.306c.079 16.84-13.51 30.557-30.35 30.635-16.841.079-30.556-13.51-30.635-30.35l-.167-35.66c-.041-8.784 2.198-16.011 5.069-21.67z" fill="#cc2137"/><path d="m347.427 160.191c-16.841 0-30.493 13.652-30.493 30.493v4.701c0 16.841 13.652 30.493 30.493 30.493s30.493-13.652 30.493-30.493v-4.701c0-16.841-13.652-30.493-30.493-30.493z" fill="#de3648"/><path d="m286.441 160.191c-16.84 0-30.493 13.652-30.493 30.493v4.701c0 16.841 13.652 30.493 30.493 30.493s30.493-13.652 30.493-30.493v-4.701c0-16.841-13.652-30.493-30.493-30.493z" fill="#ffcd38"/><path d="m225.455 160.191c-16.841 0-30.493 13.652-30.493 30.493v4.701c0 16.841 13.652 30.493 30.493 30.493s30.493-13.652 30.493-30.493v-4.701c0-16.841-13.652-30.493-30.493-30.493z" fill="#de3648"/><path d="m164.469 160.191c-16.841 0-30.493 13.652-30.493 30.493v4.701c0 16.841 13.652 30.493 30.493 30.493s30.493-13.652 30.493-30.493v-4.701c0-16.841-13.652-30.493-30.493-30.493z" fill="#ffcd38"/><path d="m438.843 190.542c-.079-16.841-13.795-30.429-30.635-30.35-16.406.077-29.72 13.098-30.323 29.34 0 .101 0 7.473 0 7.006.603 16.243 13.917 29.263 30.323 29.34 16.841.079 30.556-13.51 30.635-30.35 0-.102 0-5.316 0-4.986z" fill="#ffcd38"/><path d="m134.116 189.532c-.603-16.242-13.917-29.263-30.324-29.34-16.841-.079-30.556 13.509-30.635 30.35 0 .101 0 5.315 0 4.985.079 16.841 13.795 30.429 30.635 30.35 16.406-.077 29.72-13.098 30.324-29.34 0-.1 0-7.472 0-7.005z" fill="#de3648"/><path d="m87.409 125.689 39.082-33.826h45.174l-37.585 46.216h-55.815c2.983-5.815 6.623-9.953 9.144-12.39z" fill="#ffac00"/><path d="m191.194 503.318v-28.245h-64.566c19.81 12.345 41.508 21.936 64.566 28.245z" fill="#5bb5e7"/><path d="m126.632 475.073c12.242 7.629 25.374 14.268 38.796 19.616v-19.616z" fill="#4796cd"/><path d="m320.702 475.073v28.273c23.097-6.309 44.831-15.911 64.671-28.273z" fill="#81c5e9"/><path d="m381.164 63.628h-250.415c-3.793 0-6.867 3.074-6.867 6.867v23.626h264.15v-23.626c-.001-3.793-3.075-6.867-6.868-6.867z" fill="#fe505f"/><path d="m175.915 63.628h-45.167c-3.793 0-6.867 3.075-6.867 6.867v23.626h45.167v-23.626c0-3.792 3.075-6.867 6.867-6.867z" fill="#de3648"/></g></svg>