<?xml version="1.0" encoding="iso-8859-1"?>
<!-- Generator: Adobe Illustrator 19.0.0, SVG Export Plug-In . SVG Version: 6.00 Build 0)  -->
<svg version="1.1" id="Capa_1" xmlns="http://www.w3.org/2000/svg" xmlns:xlink="http://www.w3.org/1999/xlink" x="0px" y="0px"
	 viewBox="0 0 512 512" style="enable-background:new 0 0 512 512;" xml:space="preserve">
<polygon style="fill:#8697CB;" points="99.797,147.525 507.661,147.525 464.271,355.797 99.797,355.797 "/>
<g>
	<path style="fill:#ECF0F1;" d="M108.475,156.203c-4.79,0-8.678-3.879-8.678-8.678V86.78H82.441c-4.79,0-8.678-3.879-8.678-8.678
		s3.888-8.678,8.678-8.678h26.034c4.79,0,8.678,3.879,8.678,8.678v69.424C117.153,152.324,113.265,156.203,108.475,156.203z"/>
	<path style="fill:#ECF0F1;" d="M464.271,442.576H186.576c-47.85,0-86.78-38.929-86.78-86.78c0-4.799,3.888-8.678,8.678-8.678
		s8.678,3.879,8.678,8.678c0,38.279,31.145,69.424,69.424,69.424h277.695c4.79,0,8.678,3.879,8.678,8.678
		C472.949,438.697,469.061,442.576,464.271,442.576z"/>
</g>
<path style="fill:#4482C3;" d="M65.085,104.136H30.373c-14.353,0-26.034-11.681-26.034-26.034S16.02,52.068,30.373,52.068h34.712
	c14.353,0,26.034,11.681,26.034,26.034S79.438,104.136,65.085,104.136z"/>
<polygon style="fill:#8697CB;" points="99.797,303.729 99.797,355.797 464.271,355.797 475.119,303.729 "/>
<polygon style="fill:#687492;" points="99.797,303.729 475.119,303.729 485.966,251.661 99.797,251.661 "/>
<polygon style="fill:#8697CB;" points="99.797,251.661 485.966,251.661 496.814,199.593 99.797,199.593 "/>
<polygon style="fill:#687492;" points="496.814,199.593 507.661,147.525 99.797,147.525 99.797,199.593 "/>
<rect x="221.288" y="52.068" style="fill:#CB8252;" width="173.559" height="95.458"/>
<polygon style="fill:#F5EFCA;" points="334.102,112.814 308.068,95.458 282.034,112.814 282.034,52.068 334.102,52.068 "/>
<rect x="394.847" y="86.78" style="fill:#E64C3C;" width="95.458" height="60.746"/>
<rect x="134.508" y="86.78" style="fill:#F0C419;" width="86.78" height="60.746"/>
<polygon style="fill:#4482C3;" points="221.288,52.068 316.746,52.068 316.746,0 177.898,0 177.898,86.78 221.288,86.78 "/>
<g>
	<path style="fill:#35495E;" d="M195.254,512c-23.925,0-43.39-19.465-43.39-43.39s19.465-43.39,43.39-43.39
		s43.39,19.465,43.39,43.39S219.179,512,195.254,512z"/>
	<path style="fill:#35495E;" d="M403.525,512c-23.925,0-43.39-19.465-43.39-43.39s19.465-43.39,43.39-43.39
		c23.925,0,43.39,19.465,43.39,43.39S427.451,512,403.525,512z"/>
</g>
<g>
</g>
<g>
</g>
<g>
</g>
<g>
</g>
<g>
</g>
<g>
</g>
<g>
</g>
<g>
</g>
<g>
</g>
<g>
</g>
<g>
</g>
<g>
</g>
<g>
</g>
<g>
</g>
<g>
</g>
</svg>
