<svg id="Capa_1" enable-background="new 0 0 512.001 512.001" height="512" viewBox="0 0 512.001 512.001" width="512" xmlns="http://www.w3.org/2000/svg"><g><path d="m308.625 131.376 7.375-41.375c18.862-36.981 51.252-90.001 92.718-90.001l.278.001c31.622.179 57.004 34.818 57.004 60 0 33.084-26.916 60-60 60z" fill="#ae2538"/><path d="m106 120.001c-33.084 0-60-26.916-60-60 0-25.458 25.581-59.822 57-60l.307-.001c41.455 0 73.841 53.036 92.693 90.001l4.667 43.333z" fill="#ff3f5c"/><path d="m46 225.001h420v287h-420z" fill="#ffe470"/><path d="m256 225.001h210v287h-210z" fill="#fabe2c"/><path d="m16 120.001h195v120h-195z" fill="#f0f7ff"/><path d="m301 120.001h195v120h-195z" fill="#dfe7f4"/><g><path d="m196 90.001v283.03l60-40 60 40v-283.03z" fill="#ff8e8e"/></g><path d="m316 90.001v283.03l-60-40v-243.03z" fill="#ff3f5c"/></g></svg>