<svg id="Capa_1" enable-background="new 0 0 512 512" height="512" viewBox="0 0 512 512" width="512" xmlns="http://www.w3.org/2000/svg"><g><g><path d="m31 152h450v285h-450z" fill="#76e2f8"/><path d="m256 152h225v285h-225z" fill="#6aa9ff"/><g><g><g><g><path d="m0 422v15c0 41.35 33.65 75 75 75h362c41.35 0 75-33.65 75-75v-15z" fill="#f0f7ff"/></g></g></g></g><path d="m512 422v15c0 41.35-33.65 75-75 75h-181v-90z" fill="#dfe7f4"/></g><g><g><g><g><path d="m166 0c-24.81 0-45 20.19-45 45v347h270v-272l15-13v-62c0-8.27 6.73-15 15-15v-30z" fill="#f0f7ff"/></g></g></g></g><path d="m421 0v30c-8.27 0-15 6.73-15 15v62l-15 13v272h-135v-392z" fill="#dfe7f4"/><g><g><g><g><path d="m451 120h-60v-90c0-16.569 13.431-30 30-30 16.569 0 30 13.431 30 30z" fill="#c7cfe1"/></g></g></g></g><path d="m301 197c0 19.55-12.54 36.23-30 42.42v32.58h-30v-32.56c-11.72-4.14-21.43-13.03-26.46-24.92l27.63-11.69c2.36 5.57 7.79 9.17 13.83 9.17 8.27 0 15-6.73 15-15s-6.73-15-15-15c-24.81 0-45-20.19-45-45 0-19.55 12.54-36.23 30-42.42v-32.58h30v32.56c11.72 4.14 21.43 13.03 26.46 24.92l-27.63 11.69c-2.36-5.57-7.79-9.17-13.83-9.17-8.27 0-15 6.73-15 15s6.73 15 15 15c24.81 0 45 20.19 45 45z" fill="#fabe2c"/><path d="m301 197c0 19.55-12.54 36.23-30 42.42v32.58h-15v-60c8.27 0 15-6.73 15-15s-6.73-15-15-15v-30c24.81 0 45 20.19 45 45z" fill="#ff9100"/><path d="m256 122v-60h15v32.56c11.72 4.14 21.43 13.03 26.46 24.92l-27.63 11.69c-2.36-5.57-7.79-9.17-13.83-9.17z" fill="#ff9100"/><g><path d="m181 302h150v30h-150z" fill="#fabe2c"/></g><path d="m256 302h75v30h-75z" fill="#ff9100"/></g></svg>