<svg id="Capa_1" enable-background="new 0 0 512 512" height="512" viewBox="0 0 512 512" width="512" xmlns="http://www.w3.org/2000/svg"><g><path d="m512 166v60c0 8.28-6.72 15-15 15h-482c-8.28 0-15-6.72-15-15v-60c0-8.28 6.72-15 15-15h482c8.28 0 15 6.72 15 15z" fill="#704c55"/><path d="m512 166v60c0 8.28-6.72 15-15 15h-241v-90h241c8.28 0 15 6.72 15 15z" fill="#5b362a"/><path d="m0 226h512v195h-512z" fill="#ffe470"/><path d="m256 226h256v195h-256z" fill="#fabe2c"/><path d="m0 91h512v75h-512z" fill="#ffe470"/><path d="m256 91h256v75h-256z" fill="#fabe2c"/><g><path d="m301 331h30v30h-30z" fill="#5b362a"/></g><g><path d="m241 331h30v30h-30z" fill="#704c55"/></g><path d="m256 331h15v30h-15z" fill="#5b362a"/><g><path d="m361 331h30v30h-30z" fill="#5b362a"/></g><g><path d="m421 331h30v30h-30z" fill="#5b362a"/></g></g></svg>