<svg viewBox="0 0 512 512" xmlns="http://www.w3.org/2000/svg"><path d="m512 229.097656-82.789062 38.300782h-351.902344l-77.308594-38.300782 68.007812-108.097656h119.101563l68.101563 75.101562.898437-2.503906 71.402344-72.597656h116.699219zm0 0" fill="#dfd7d5"/><path d="m512 229.097656-82.789062 38.300782-173.101563 1.601562v-73.800781l71.402344-74.199219h116.699219zm0 0" fill="#d2c5c2"/><path d="m392.011719 229.097656-54.003907 27.800782h-116.695312l-87.601562-27.800782 53.398437-108.097656h140.402344zm0 0" fill="#ede9e8"/><path d="m392.011719 229.097656-54.003907 27.800782-81.898437 1.601562v-135.898438l71.402344-1.601562zm0 0" fill="#dfd7d5"/><path d="m177.316406 35.101562 29.996094 30-21.210938 21.210938-29.996093-30zm0 0" fill="#fed2a4"/><path d="m336.101562 35.097656 21.210938 21.210938-30 30-21.210938-21.210938zm0 0" fill="#ffbd86"/><path d="m512 229.097656-255.890625 282.902344-256.109375-282.902344h133.710938l122.398437 95.300782 12.601563 9.902343 123.300781-105.203125zm0 0" fill="#d2c5c2"/><path d="m512 229.097656-255.890625 282.902344v-187.601562l12.601563 9.902343 123.300781-105.203125zm0 0" fill="#c4b3af"/><path d="m392.011719 229.097656-135.902344 282.902344-122.398437-282.902344zm0 0" fill="#dfd7d5"/><path d="m392.011719 229.097656-135.902344 282.902344v-282.902344zm0 0" fill="#d2c5c2"/><path d="m242 0h30v45h-30zm0 0" fill="#fed2a4"/><path d="m256.398438 0h15.601562v45h-15.601562zm0 0" fill="#ffbd86"/></svg>