<?xml version="1.0" encoding="iso-8859-1"?>
<!-- Generator: Adobe Illustrator 19.0.0, SVG Export Plug-In . SVG Version: 6.00 Build 0)  -->
<svg version="1.1" id="Capa_1" xmlns="http://www.w3.org/2000/svg" xmlns:xlink="http://www.w3.org/1999/xlink" x="0px" y="0px"
	 viewBox="0 0 512 512" style="enable-background:new 0 0 512 512;" xml:space="preserve">
<polygon style="fill:#004EAD;" points="511.062,236.839 280.282,498.923 49.502,236.839 120.644,113.266 439.92,113.266 "/>
<polygon style="fill:#BCE4F9;" points="360.101,236.839 280.282,113.266 200.463,236.839 "/>
<polygon style="fill:#0064E0;" points="511.062,236.839 439.92,113.266 360.101,236.839 "/>
<g>
	<polygon style="fill:#009DFF;" points="280.282,113.266 120.644,113.266 200.463,236.839 	"/>
	<polygon style="fill:#009DFF;" points="439.92,113.266 280.282,113.266 360.101,236.839 	"/>
</g>
<polygon style="fill:#7BCEFC;" points="200.463,236.839 280.282,498.923 360.101,236.839 "/>
<polygon style="fill:#0064E0;" points="120.644,113.266 49.502,236.839 200.463,236.839 "/>
<polygon style="fill:#009DFF;" points="464.798,459.331 443.212,459.331 443.212,437.746 412.129,437.746 412.129,459.331 
	390.544,459.331 390.544,490.414 412.129,490.414 412.129,512 443.212,512 443.212,490.414 464.798,490.414 "/>
<polygon style="fill:#7BCEFC;" points="86.629,21.586 65.044,21.586 65.044,0 33.961,0 33.961,21.586 12.375,21.586 12.375,52.669 
	33.961,52.669 33.961,74.254 65.044,74.254 65.044,52.669 86.629,52.669 "/>
<circle style="fill:#009DFF;" cx="16.48" cy="154.99" r="15.542"/>
<circle style="fill:#7BCEFC;" cx="487.71" cy="400.33" r="15.542"/>
<circle style="fill:#009DFF;" cx="167.63" cy="37.13" r="15.542"/>
<g>
</g>
<g>
</g>
<g>
</g>
<g>
</g>
<g>
</g>
<g>
</g>
<g>
</g>
<g>
</g>
<g>
</g>
<g>
</g>
<g>
</g>
<g>
</g>
<g>
</g>
<g>
</g>
<g>
</g>
</svg>
