<svg id="Capa_1" enable-background="new 0 0 512 512" height="512" viewBox="0 0 512 512" width="512" xmlns="http://www.w3.org/2000/svg"><path d="m256 0c-140.7 0-256 115.3-256 256s115.3 256 256 256 256-115.3 256-256-115.3-256-256-256z" fill="#ff7b4a"/><path d="m512 256c0 140.7-115.3 256-256 256v-512c140.7 0 256 115.3 256 256z" fill="#ff435b"/><path d="m298.299 256 74.401 74.099-42.601 42.601-74.099-74.401-74.099 74.401-42.601-42.601 74.401-74.099-74.401-74.101 42.601-42.599 74.099 74.399 74.099-74.399 42.601 42.599z" fill="#f2f2f2"/><path d="m298.299 256 74.401 74.099-42.601 42.601-74.099-74.401v-84.6l74.099-74.399 42.601 42.599z" fill="#e7e7f2"/></svg>