<?xml version="1.0" encoding="iso-8859-1"?>
<!-- Generator: Adobe Illustrator 19.0.0, SVG Export Plug-In . SVG Version: 6.00 Build 0)  -->
<svg version="1.1" id="Layer_1" xmlns="http://www.w3.org/2000/svg" xmlns:xlink="http://www.w3.org/1999/xlink" x="0px" y="0px"
	 viewBox="0 0 512.001 512.001" style="enable-background:new 0 0 512.001 512.001;" xml:space="preserve">
<polygon style="fill:#A3A3A3;" points="427.327,126.098 328.204,225.222 314.997,270.865 402.689,200.583 462.387,126.098 "/>
<polygon style="fill:#D9D9D9;" points="319.447,269.038 328.204,295.342 497.447,126.097 462.387,126.098 "/>
<polygon style="fill:#FEBA00;" points="328.204,0.015 164.101,0.015 143.188,265.467 164.101,511.986 328.204,511.986 
	328.204,211.455 317.747,195.782 328.204,180.11 "/>
<polygon style="fill:#FEE899;" points="0,0.015 0,180.11 10.457,195.782 0,211.455 0,511.986 164.101,511.986 164.101,0.015 "/>
<g>
	<rect y="180.11" style="fill:#FEBA00;" width="40.09" height="31.345"/>
	<rect x="57.623" y="180.11" style="fill:#FEBA00;" width="40.09" height="31.345"/>
	<rect x="115.246" y="180.11" style="fill:#FEBA00;" width="40.101" height="31.345"/>
</g>
<g>
	<rect x="172.868" y="180.11" style="fill:#FEA730;" width="40.09" height="31.345"/>
	<rect x="230.481" y="180.11" style="fill:#FEA730;" width="40.09" height="31.345"/>
	<rect x="288.104" y="180.11" style="fill:#FEA730;" width="40.09" height="31.345"/>
</g>
<path style="fill:#FFFFFF;" d="M108.623,339.812c-26.14,0-47.406-21.267-47.406-47.406s21.267-47.406,47.406-47.406
	s47.406,21.267,47.406,47.406S134.763,339.812,108.623,339.812z M108.623,276.345c-8.856,0-16.061,7.205-16.061,16.061
	c0,8.856,7.205,16.061,16.061,16.061s16.061-7.205,16.061-16.061C124.685,283.55,117.48,276.345,108.623,276.345z"/>
<g>
	<path style="fill:#EBEBEB;" d="M219.58,450.769c-26.14,0-47.406-21.267-47.406-47.406s21.267-47.406,47.406-47.406
		s47.406,21.267,47.406,47.406S245.72,450.769,219.58,450.769z M219.58,387.301c-8.856,0-16.061,7.205-16.061,16.061
		c0,8.856,7.205,16.061,16.061,16.061c8.856,0,16.061-7.205,16.061-16.061C235.641,394.506,228.436,387.301,219.58,387.301z"/>
	<polygon style="fill:#EBEBEB;" points="240.232,249.589 164.102,325.72 153.646,352.829 164.102,370.048 262.396,271.754 	"/>
</g>
<polygon style="fill:#FFFFFF;" points="65.807,424.015 87.971,446.179 164.102,370.048 164.102,325.72 "/>
<path style="fill:#D9D9D9;" d="M497.447,265.455L292.534,60.542c-12.975-12.975-31.349-17.242-47.888-12.827l110.242,125.03
	l107.499,92.712H497.447z"/>
<path style="fill:#EBEBEB;" d="M244.646,47.714c-8.143,2.173-15.844,6.439-22.232,12.827l0,0l135.229,135.229l69.685,69.685h35.061
	L244.646,47.714z"/>
<path style="fill:#D9D9D9;" d="M446.746,365.783c17.991,0,34.305-7.318,46.121-19.134l-4.388-19.177l-17.765-2.978
	c-6.141,6.141-14.617,9.944-23.966,9.944c-18.698,0-33.91-15.213-33.91-33.91c0-9.349,3.803-17.827,9.944-23.968l-3.646-18.434
	l-18.507-3.72c-11.816,11.816-19.134,28.13-19.134,46.121C381.49,336.509,410.763,365.783,446.746,365.783z"/>
<path style="fill:#A3A3A3;" d="M446.746,266.617c18.698,0,33.91,15.213,33.91,33.91c0,9.349-3.803,17.826-9.944,23.966
	l22.155,22.155c11.816-11.816,19.134-28.13,19.134-46.121c0-35.981-29.273-65.255-65.255-65.255
	c-17.991,0-34.305,7.318-46.121,19.134l22.154,22.154C428.919,270.42,437.396,266.617,446.746,266.617z"/>
<path style="fill:#EBEBEB;" d="M512,91.036c0-17.991-7.318-34.305-19.134-46.121l-19.177,4.388l-2.978,17.765
	c6.141,6.141,9.944,14.617,9.944,23.966c0,18.698-15.213,33.91-33.91,33.91c-9.349,0-17.827-3.803-23.968-9.944l-18.434,3.646
	l-3.72,18.507c11.816,11.816,28.13,19.134,46.121,19.134C482.727,156.292,512.001,127.018,512,91.036z"/>
<path style="fill:#D9D9D9;" d="M412.835,91.036c0-18.698,15.213-33.91,33.91-33.91c9.349,0,17.826,3.803,23.966,9.944l22.155-22.155
	c-11.816-11.816-28.13-19.134-46.121-19.134c-35.981,0-65.255,29.273-65.255,65.255c0,17.991,7.318,34.305,19.134,46.121
	l22.154-22.154C416.638,108.863,412.835,100.385,412.835,91.036z"/>
<g>
</g>
<g>
</g>
<g>
</g>
<g>
</g>
<g>
</g>
<g>
</g>
<g>
</g>
<g>
</g>
<g>
</g>
<g>
</g>
<g>
</g>
<g>
</g>
<g>
</g>
<g>
</g>
<g>
</g>
</svg>
